<?xml version="1.0" encoding="UTF-8" standalone="no"?>
        <svg 
    viewBox="10.3271484375 -85.6201171875 448.828125 56.7626953125"
    width="438.5009765625"
    height="142.3828125"
   xmlns="http://www.w3.org/2000/svg"
   xmlns:svg="http://www.w3.org/2000/svg">
   <path d="M58.37-42.92L58.37-89.58L58.37-97.34L78.44-89.58L88.48-89.58L88.48-101.22L56.25-101.22Q52.22-94.41 47.02-86.50Q41.82-78.59 36.91-72.58L36.91-72.58Q46.00-66.87 51.27-58.89Q56.54-50.90 58.37-42.92L58.37-42.92ZM10.33 14.43L10.33-116.53L10.33-124.66L32.23-116.53L37.50-116.53L47.24-125.98L66.14-108.91Q64.45-106.79 59.40-106.79L59.40-106.79L58.67-105.47L88.48-105.47L88.48-126.93L114.33-124.37Q114.11-122.75 113.01-121.69Q111.91-120.63 108.76-120.12L108.76-120.12L108.76-105.47L118.95-105.47L129.27-119.53Q129.27-119.53 131.14-117.99Q133.01-116.46 135.90-114.00Q138.79-111.55 141.94-108.80Q145.09-106.05 147.58-103.64L147.58-103.64Q146.92-101.22 143.26-101.22L143.26-101.22L108.76-101.22L108.76-89.58L117.11-89.58L125.83-98.88L143.70-85.47Q143.04-84.74 141.72-83.94Q140.41-83.13 138.28-82.62L138.28-82.62L138.28-39.77Q138.21-39.26 135.50-38.16Q132.79-37.06 129.02-36.15Q125.24-35.23 122.09-35.23L122.09-35.23L118.65-35.23L118.65-43.07L109.94-43.07Q113.96-34.42 120.45-28.56Q126.93-22.71 134.40-19.04Q141.87-15.38 148.97-13.33L148.97-13.33L148.68-12.01Q142.82-10.18 138.87-4.76Q134.91 0.66 133.37 8.13L133.37 8.13Q126.78 2.05 122.06-4.91Q117.33-11.87 114.11-20.73Q110.89-29.59 108.76-41.53L108.76-41.53L108.76 7.03Q108.76 8.13 106.27 9.78Q103.78 11.43 100.01 12.78Q96.24 14.14 92.43 14.14L92.43 14.14L88.48 14.14L88.48-19.63Q79.83-10.84 68.33-3.99Q56.84 2.86 42.77 7.98L42.77 7.98L41.53 6.30Q55.52-2.71 65.59-15.78Q75.66-28.86 81.15-43.07L81.15-43.07L77.56-43.07L77.56-39.62Q77.56-38.67 75.11-37.24Q72.66-35.82 68.88-34.72Q65.11-33.62 61.08-33.62L61.08-33.62L59.25-33.62Q59.03-23.00 53.98-16.66Q48.93-10.33 36.47-10.18L36.47-10.18Q36.47-14.36 35.93-19.26Q35.38-24.17 34.50-26.07L34.50-26.07Q33.40-28.27 30.32-29.74L30.32-29.74L30.32 8.13Q30.32 8.86 28.34 10.36Q26.37 11.87 22.71 13.15Q19.04 14.43 13.92 14.43L13.92 14.43L10.33 14.43ZM88.48-47.24L88.48-64.53L77.56-64.53L77.56-47.24L88.48-47.24ZM118.65-64.53L108.76-64.53L108.76-47.24L118.65-47.24L118.65-64.53ZM77.56-68.70L88.48-68.70L88.48-85.33L77.56-85.33L77.56-68.70ZM108.76-85.33L108.76-68.70L118.65-68.70L118.65-85.33L108.76-85.33ZM38.82-112.35L30.32-112.35L30.32-32.23L35.23-32.23Q37.13-32.23 38.23-33.03L38.23-33.03Q40.80-34.64 40.80-40.65L40.80-40.65Q40.80-48.41 39.11-56.73Q37.43-65.04 33.18-72.14L33.18-72.14Q34.20-77.20 35.34-84.30Q36.47-91.41 37.43-98.88Q38.38-106.35 38.82-112.35L38.82-112.35ZM238.04-127.37L238.04-127.37L269.97-121.80Q269.17-117.92 263.82-117.48L263.82-117.48Q260.23-113.53 255.21-107.92Q250.20-102.32 246.02-97.92L246.02-97.92L266.53-97.92L277.22-110.08L295.83-95.21Q294.87-94.12 293.44-93.16Q292.02-92.21 289.38-91.63L289.38-91.63L289.38 5.57Q289.38 6.15 287.15 7.58Q284.91 9.01 280.85 10.22Q276.78 11.43 271.22 11.43L271.22 11.43L267.48 11.43L267.48-0.59L237.30-0.59L237.30 7.03Q237.30 8.20 232.80 10.40Q228.30 12.60 220.17 12.60L220.17 12.60L216.43 12.60L216.43-48.27Q214.09-45.48 210.06-45.04Q206.03-44.60 201.93-48.27L201.93-48.27Q201.71-53.69 199.95-59.25Q198.19-64.82 196.07-69.43L196.07-69.43L196.07 8.42Q196.07 9.23 193.51 10.62Q190.94 12.01 187.10 13.15Q183.25 14.28 179.22 14.28L179.22 14.28L175.05 14.28L175.05-44.09Q170.58-37.94 165.20-32.23Q159.81-26.51 153.59-21.61L153.59-21.61L151.83-23.07Q157.18-31.49 161.35-41.89Q165.53-52.29 168.53-63.54Q171.53-74.78 173.36-85.77L173.36-85.77L156.74-85.77L155.57-90.01L175.05-90.01L175.05-127.95L201.64-125.39Q201.34-123.71 200.28-122.61Q199.22-121.51 196.07-121.07L196.07-121.07L196.07-90.31L203.98-103.34Q203.98-103.34 206.07-101.22Q208.15-99.10 211.05-96.06Q213.94-93.02 216.43-90.16L216.43-90.16L216.43-106.35L238.18-98.22Q238.33-104.44 238.29-112.65Q238.26-120.85 238.04-127.37ZM214.23-85.77L196.07-85.77L196.07-72.88Q204.35-70.75 209.29-67.68Q214.23-64.60 216.43-61.23L216.43-61.23L216.43-86.28Q215.55-85.77 214.23-85.77L214.23-85.77ZM267.48-50.24L237.30-50.24L237.30-4.83L267.48-4.83L267.48-50.24ZM237.30-93.75L237.30-54.42L267.48-54.42L267.48-93.75L237.30-93.75ZM408.33-111.77L389.43-111.77L389.43-85.18Q396.17-82.18 400.82-78.59Q405.47-75 408.33-71.41L408.33-71.41L408.33-111.77ZM307.18-15.01L307.18-100.78L307.18-108.03L324.61-100.78L325.93-100.78L325.93-127.37L351.64-124.95Q351.34-123.34 350.32-122.35Q349.29-121.36 346.36-120.92L346.36-120.92L346.36-100.78L347.24-100.78L354.79-109.50L369.87-98.07L369.87-123.78L392.43-115.94L406.35-115.94L416.24-127.81L434.99-112.50Q434.18-111.62 432.82-110.85Q431.47-110.08 428.83-109.64L428.83-109.64L428.83-11.87Q428.83-9.01 430.37-9.01L430.37-9.01L431.10-9.01Q431.32-9.01 431.65-9.01Q431.98-9.01 432.42-9.01L432.42-9.01Q433.01-9.01 433.78-9.34Q434.55-9.67 435.28-10.62L435.28-10.62Q436.08-11.94 437.11-15.05Q438.13-18.16 439.20-22.05Q440.26-25.93 441.14-29.52L441.14-29.52L442.68-29.52L443.26-9.30Q446.41-7.47 447.62-5.57Q448.83-3.66 448.83-0.73L448.83-0.73Q448.83 4.98 443.88 8.13Q438.94 11.28 428.69 11.28L428.69 11.28L422.53 11.28Q416.38 11.28 413.34 9.67Q410.30 8.06 409.31 4.39Q408.33 0.73 408.33-5.42L408.33-5.42L408.33-47.09Q405.47-45.19 401.59-45.70Q397.71-46.22 393.90-49.95L393.90-49.95Q393.82-56.25 392.58-62.84Q391.33-69.43 389.43-75.59L389.43-75.59L389.43-59.84Q389.43-49.51 388.51-39.33Q387.60-29.15 384.23-19.63Q380.86-10.11 373.54-1.65Q366.21 6.81 353.39 13.62L353.39 13.62L351.93 12.60Q360.21 2.86 364.01-8.64Q367.82-20.14 368.85-33.03Q369.87-45.92 369.87-59.84L369.87-59.84L369.87-95.73Q368.04-94.41 365.11-93.75L365.11-93.75L365.11-36.18Q365.11-30.32 363.98-26.22Q362.84-22.12 359.22-19.74Q355.59-17.36 347.97-16.63L347.97-16.63Q347.97-20.73 347.72-23.88Q347.46-27.03 346.80-28.93L346.80-28.93Q346.00-31.27 344.82-32.23L344.82-32.23L344.82 8.72Q344.75 9.30 342.63 10.55Q340.50 11.79 337.21 12.85Q333.91 13.92 330.32 13.92L330.32 13.92L327.47 13.92L327.47-96.61L323.88-96.61L323.88-20.87Q323.88-19.85 321.86-18.49Q319.85-17.14 316.63-16.08Q313.40-15.01 309.74-15.01L309.74-15.01L307.18-15.01ZM348.78-38.09L348.78-96.61L344.82-96.61L344.82-36.04L346.80-35.82Q348.05-35.82 348.41-36.40Q348.78-36.99 348.78-38.09L348.78-38.09Z"/>
    </svg>
        