<svg width="184" height="184" version="1.1" xmlns="http://www.w3.org/2000/svg" xmlns:xlink="http://www.w3.org/1999/xlink"><path d="M111.14 34.74L111.14 34.74Q109.66 34.92 94.39 40.07L94.39 40.07Q92 40.81 90.16 41.36L90.16 41.36L89.42 41.91Q88.69 74.85 85.93 89.02L85.93 89.02Q79.49 123.61 56.86 135.94L56.86 135.94Q54.10 137.59 50.42 137.59L50.42 137.59L49.68 136.86Q80.41 109.99 80.41 65.10L80.41 65.10Q80.41 41.91 74.89 34.18L74.89 34.18Q74.34 29.58 88.14 35.84L88.14 35.84Q104.33 30.69 114.26 24.43L114.26 24.43Q124.57 24.43 131.93 31.79L131.93 31.79Q131.74 33.45 128.62 36.94L128.62 36.94Q127.88 37.68 127.51 38.42L127.51 38.42Q120.34 48.54 119.05 73.56L119.05 73.56Q118.31 93.25 124.57 106.86L124.57 106.86Q130.64 119.74 142.78 125.26L142.78 125.26Q148.30 125.63 150.14 122.87L150.14 122.87Q151.80 120.30 156.40 101.53L156.40 101.53Q159.16 101.71 159.16 110.54L159.16 110.54Q159.16 111.28 159.34 111.65L159.34 111.65Q160.08 121.40 163.02 131.52L163.02 131.52Q163.58 133.36 163.21 135.02L163.21 135.02Q162.84 137.04 161.37 137.41Q159.90 137.78 154.01 137.78L154.01 137.78Q112.24 137.78 110.22 80.00L110.22 80.00Q110.03 73.01 110.40 65.28L110.40 65.28L113.34 38.42Q113.34 35.47 111.14 34.74ZM105.43 87.91L105.06 88.28Q101.94 88.28 97.70 82.94L97.70 82.94Q96.23 81.10 95.50 80.37L95.50 80.37Q95.13 79.45 91.82 75.58L91.82 75.58Q88.69 72.09 90.34 69.33L90.34 69.33Q96.78 70.06 103.04 75.03L103.04 75.03Q106.72 78.16 106.90 81.10L106.90 81.10L106.54 85.34L105.43 87.91ZM69 52.40L69 52.40Q69.55 54.24 68.26 60.31L68.26 60.31L67.90 62.15Q67.71 63.81 67.53 77.61L67.53 77.61Q67.53 91.41 61.09 97.30L61.09 97.30Q58.33 97.30 56.86 96.56L56.86 96.56Q55.75 94.90 47.29 84.97L47.29 84.97Q46.92 84.42 46.37 83.86L46.37 83.86L46.92 83.50L54.10 84.05Q56.49 83.68 57.41 82.21L57.41 82.21Q58.88 80.18 59.43 62.70L59.43 62.70Q59.62 59.76 59.62 59.02L59.62 59.02Q59.25 56.45 57.41 55.34L57.41 55.34Q52.26 55.34 43.06 57.55L43.06 57.55L41.77 140.35Q41.77 144.03 37.72 148.08L37.72 148.08L36.62 149.00Q33.12 147.34 31.10 141.09L31.10 141.09Q30.36 138.51 29.81 137.41L29.81 137.41Q29.81 133.91 32.38 119.56L32.38 119.56Q33.12 114.96 33.30 111.65L33.30 111.65L35.14 62.15Q35.14 61.42 35.51 59.94L35.51 59.94Q34.59 60.13 24.10 62.15L24.10 62.15Q22.26 62.52 20.98 62.70L20.98 62.70Q20.61 63.81 19.87 80.37L19.87 80.37Q18.95 99.32 13.25 101.53L13.25 101.53Q7.36 96.01 9.38 86.62L9.38 86.62L12.51 74.30Q13.98 65.10 9.75 56.82L9.75 56.82Q9.38 52.77 18.40 56.63L18.40 56.63Q19.14 57.00 19.69 57.37L19.69 57.37L35.14 54.79Q34.78 52.40 35.14 36.58L35.14 36.58Q35.51 20.38 28.89 12.47L28.89 12.47Q28.52 5.11 39.93 11.92L39.93 11.92Q43.24 13.76 44.90 15.23L44.90 15.23Q46.92 16.89 46.92 21.30L46.92 21.30Q43.42 31.24 43.06 52.40L43.06 52.40Q51.70 50.38 56.30 47.98L56.30 47.98Q60.72 48.17 69 52.40Z" stroke="#000" fill="black" /></svg>