<svg width="184" height="184" version="1.1" xmlns="http://www.w3.org/2000/svg" xmlns:xlink="http://www.w3.org/1999/xlink"><path d="M156.22 64.09L156.22 64.09Q156.22 66.30 152.90 72.37L152.90 72.37Q151.06 75.87 151.06 78.45L151.06 78.45L150.14 120.95Q150.14 126.84 147.02 135.85L147.02 135.85Q143.89 144.50 140.02 142.85L140.02 142.85Q137.63 139.90 131.19 128.68L131.19 128.68Q130.82 128.13 130.64 127.57L130.64 127.57Q124.57 127.21 102.67 128.49L102.67 128.49L101.57 128.49Q101.20 133.09 99.54 134.75L99.54 134.75Q90.71 134.20 92.92 107.33L92.92 107.33Q93.47 99.97 93.47 99.05L93.47 99.05Q93.47 75.13 86.85 62.62L86.85 62.62Q88.87 59.86 96.60 65.38L96.60 65.38Q97.70 66.12 98.07 66.30L98.07 66.30L105.43 65.20L112.06 41.83Q114.26 31.89 113.34 23.61L113.34 23.61Q111.87 21.22 111.87 20.49L111.87 20.49Q113.90 17.54 121.62 18.28L121.62 18.28Q123.46 18.46 124.20 18.46L124.20 18.46Q130.46 20.67 130.64 20.85L130.64 20.85Q131.74 21.41 132.48 22.51L132.48 22.51L132.11 24.90Q127.33 30.97 118.31 48.27L118.31 48.27L111.87 60.23Q110.40 62.44 108.93 64.28L108.93 64.28Q113.34 63.73 127.33 59.13L127.33 59.13Q136.71 56.00 142.78 56.00L142.78 56.00Q152.35 59.68 156.22 64.09ZM138.92 69.43L138.92 69.43L138 67.22Q135.79 65.57 132.66 65.75L132.66 65.75L125.12 67.59L101.75 72.74Q101.38 72.93 101.02 72.93L101.02 72.93L100.65 93.72Q120.15 87.46 127.33 89.12L127.33 89.12Q132.11 90.22 133.03 94.27L133.03 94.27Q131.74 95.74 131.38 95.74L131.38 95.74Q129.17 96.66 100.65 98.69L100.65 98.69L101.57 122.42L124.38 118.93Q126.78 118.74 128.98 118.74L128.98 118.74Q132.11 118.93 136.71 122.79L136.71 122.79Q137.08 122.97 137.45 123.34L137.45 123.34L138.37 122.05Q140.21 104.57 139.84 85.25L139.84 85.25Q139.66 77.53 138.92 69.43ZM79.12 102.73L79.12 102.73L75.99 102.37L61.64 91.69Q60.54 102.73 60.35 138.61L60.35 138.61Q60.35 140.82 60.35 142.85L60.35 142.85Q60.35 149.84 54.65 154.44L54.65 154.44Q50.78 153.33 48.76 144.87L48.76 144.87Q48.58 144.13 48.39 143.95L48.39 143.95Q46.55 137.14 49.86 123.71L49.86 123.71Q52.07 114.88 52.26 110.65L52.26 110.65Q52.99 90.04 52.81 84.89L52.81 84.89Q40.48 108.99 15.82 129.05L15.82 129.05L13.62 129.23L13.06 128.49L13.43 127.21L13.62 127.02Q15.27 124.08 23.92 113.04L23.92 113.04Q25.39 111.20 26.50 109.54L26.50 109.54Q43.06 87.65 50.42 70.72L50.42 70.72L34.41 73.29Q25.94 73.85 21.34 69.43L21.34 69.43Q21.34 68.51 23.92 67.41L23.92 67.41Q30.54 66.85 50.05 62.25L50.05 62.25Q51.89 61.89 53.54 61.52L53.54 61.52L53.91 37.41Q53.18 21.59 47.47 13.49L47.47 13.49Q47.47 8.34 55.94 12.02L55.94 12.02Q63.30 15.33 66.06 19.57L66.06 19.57Q66.79 20.49 66.79 21.22L66.79 21.22Q66.79 21.77 65.32 26.19L65.32 26.19Q65.14 26.37 65.14 26.56L65.14 26.56Q62.19 35.02 62.01 57.10L62.01 57.10Q62.01 57.84 61.82 58.57L61.82 58.57L72.50 56.92Q77.83 56.73 80.78 60.60L80.78 60.60Q80.59 63.91 63.48 67.59L63.48 67.59Q62.38 67.77 61.82 67.96L61.82 67.96L61.27 86.36L61.27 86.54L72.86 89.49Q79.49 92.06 80.59 97.21L80.59 97.21L80.78 98.69Q80.78 101.81 79.12 102.73Z" stroke="#000" fill="black" /></svg>