<svg width="184" height="184" version="1.1" xmlns="http://www.w3.org/2000/svg" xmlns:xlink="http://www.w3.org/1999/xlink"><path d="M161 142.82L162.29 144.66L161.18 145.58Q141.50 147.42 131.19 146.69L131.19 146.69Q121.99 139.88 100.28 110.44L100.28 110.44Q98.07 107.31 96.78 105.84L96.78 105.84L96.78 156.44Q96.78 167.66 93.66 171.34L93.66 171.34L91.45 173.37Q87.22 173.18 84.82 159.75L84.82 159.75Q84.27 156.62 84.27 154.97L84.27 154.97Q84.27 153.13 85.56 148.16L85.56 148.16Q89.06 136.38 88.87 111.54L88.87 111.54Q88.87 107.68 88.87 105.84L88.87 105.84Q71.94 132.15 49.31 144.30L49.31 144.30Q46 146.14 42.50 147.61L42.50 147.61Q35.33 150.37 33.86 150.37L33.86 150.37Q32.20 150.37 30.36 150.00L30.36 150.00L30.36 149.45L54.28 133.26Q75.99 117.25 82.43 100.50L82.43 100.50L71.02 101.98Q70.84 102.16 69.92 104.37L69.92 104.37Q69.74 104.74 69.37 104.92L69.37 104.92L68.26 104.55Q64.22 101.98 62.19 90.94L62.19 90.94Q61.27 86.52 60.72 84.86L60.72 84.86Q57.78 74.93 53.54 67.02L53.54 67.02Q53.54 65.54 54.46 64.81L54.46 64.81Q62.56 67.02 76.54 63.52L76.54 63.52Q84.82 61.50 88.50 60.94L88.50 60.94L89.06 60.39L88.87 47.88L74.89 48.98Q71.76 48.80 69.37 47.88L69.37 47.88Q67.90 47.33 66.61 46.22L66.61 46.22Q67.16 44.57 69.18 44.02L69.18 44.02Q72.31 43.83 86.66 40.70L86.66 40.70L88.50 40.34Q88.50 30.03 81.51 20.65L81.51 20.65L81.51 18.26Q84.27 14.76 94.21 20.46L94.21 20.46Q98.99 23.22 100.28 25.25L100.28 25.25Q101.02 26.54 98.26 36.29L98.26 36.29Q98.07 36.84 97.89 37.21L97.89 37.21L112.79 32.98Q119.60 31.87 123.83 36.10L123.83 36.10Q123.83 37.94 121.44 38.68L121.44 38.68L97.70 45.49L96.78 46.22L96.42 58.92Q100.10 59.10 111.69 56.71L111.69 56.71Q119.42 55.06 125.12 55.61L125.12 55.61L134.32 61.68Q136.34 63.34 137.63 64.99L137.63 64.99Q137.63 67.75 133.77 71.06L133.77 71.06Q132.11 72.35 131.38 73.27L131.38 73.27Q130.09 75.11 123.83 89.46L123.83 89.46L119.97 97.01Q119.05 98.48 118.31 99.03L118.31 99.03Q116.66 100.32 113.53 100.32L113.53 100.32Q111.69 98.66 111.69 96.82L111.69 96.82Q101.38 97.19 96.78 98.66L96.78 98.66Q117.21 118.17 120.34 120.74L120.34 120.74Q134.50 132.89 155.66 140.80L155.66 140.80Q158.24 141.72 161 142.82L161 142.82ZM119.97 63.70L119.97 63.70L118.86 62.05Q108.56 62.05 96.78 64.44L96.78 64.44L96.78 75.30Q104.51 75.30 106.54 76.22L106.54 76.22Q108.19 76.95 108.93 78.24L108.93 78.24L109.30 80.26Q107.46 81.37 100.65 82.10L100.65 82.10L96.78 83.02L97.15 92.22Q104.14 90.02 110.77 90.57L110.77 90.57Q111.69 90.57 112.42 90.75L112.42 90.75Q118.13 73.27 119.97 63.70ZM88.87 93.88L89.06 84.50L77.83 85.60Q75.44 84.13 75.07 82.84L75.07 82.84L89.06 77.69L89.06 66.10L71.76 69.96Q68.45 71.06 65.87 72.17L65.87 72.17L70.84 97.38L88.87 93.88ZM56.12 44.57L56.12 44.57Q56.12 46.96 51.70 50.46L51.70 50.46L49.50 52.48Q42.14 60.58 40.66 62.60L40.66 62.60Q39.56 64.26 39.01 65.91L39.01 65.91Q39.01 68.49 44.53 76.03L44.53 76.03Q51.89 86.34 51.89 93.88L51.89 93.88Q51.89 99.03 48.76 102.34L48.76 102.34Q46.74 104.37 44.16 103.45L44.16 103.45Q39.38 98.48 26.50 88.54L26.50 88.54L26.31 87.62L36.98 90.57Q40.85 91.12 41.77 89.28L41.77 89.28Q41.77 84.13 36.43 74.56L36.43 74.56Q34.41 70.70 33.67 68.49L33.67 68.49L33.86 64.99L42.14 48.98Q42.14 47.51 40.30 46.22L40.30 46.22Q38.46 46.41 30.73 48.98L30.73 48.98Q30.36 49.17 29.81 49.35L29.81 49.35Q29.44 49.54 24.47 50.27L24.47 50.27Q21.34 50.82 21.34 52.66L21.34 52.66Q21.34 53.40 21.90 54.50L21.90 54.50L20.79 126.63L20.98 144.66Q20.24 157.91 16.38 159.75L16.38 159.75Q14.54 159.57 12.14 155.52L12.14 155.52Q7.73 148.90 10.49 137.12L10.49 137.12Q12.33 128.47 12.51 126.63L12.51 126.63Q16.38 99.58 14.72 72.35L14.72 72.35Q14.35 65.18 13.43 59.84L13.43 59.84Q13.25 57.82 9.75 46.41L9.75 46.41Q8.83 43.83 8.46 41.81L8.46 41.81Q12.51 39.42 19.14 44.57L19.14 44.57Q19.87 45.12 20.61 45.86L20.61 45.86Q33.49 44.38 43.98 37.02L43.98 37.02Q49.68 37.02 56.12 44.57Z" stroke="#000" fill="black" /></svg>